<?xml version="1.0" encoding="UTF-8" standalone="no"?>
<!-- @author Natan Felles <natanfelles@gmail.com> -->

<svg
   xmlns:dc="http://purl.org/dc/elements/1.1/"
   xmlns:cc="http://creativecommons.org/ns#"
   xmlns:rdf="http://www.w3.org/1999/02/22-rdf-syntax-ns#"
   xmlns:svg="http://www.w3.org/2000/svg"
   xmlns="http://www.w3.org/2000/svg"
   xmlns:sodipodi="http://sodipodi.sourceforge.net/DTD/sodipodi-0.dtd"
   xmlns:inkscape="http://www.inkscape.org/namespaces/inkscape"
   height="45"
   width="40.171188"
   version="1.1"
   id="svg2"
   inkscape:version="0.91 r13725"
   sodipodi:docname="logo-white.svg"
   inkscape:export-filename="/home/natanfelles/Startups/OrpheuOS/logo.png"
   inkscape:export-xdpi="90"
   inkscape:export-ydpi="90">
  <metadata
     id="metadata8">
    <rdf:RDF>
      <cc:Work
         rdf:about="">
        <dc:format>image/svg+xml</dc:format>
        <dc:type
           rdf:resource="http://purl.org/dc/dcmitype/StillImage" />
        <dc:title></dc:title>
      </cc:Work>
    </rdf:RDF>
  </metadata>
  <defs
     id="defs6" />
  <sodipodi:namedview
     pagecolor="#ffffff"
     bordercolor="#666666"
     borderopacity="1"
     objecttolerance="10"
     gridtolerance="10"
     guidetolerance="10"
     inkscape:pageopacity="0"
     inkscape:pageshadow="2"
     inkscape:window-width="1366"
     inkscape:window-height="711"
     id="namedview4"
     showgrid="false"
     inkscape:zoom="10.4"
     inkscape:cx="17.853821"
     inkscape:cy="24.999978"
     inkscape:window-x="0"
     inkscape:window-y="27"
     inkscape:window-maximized="1"
     inkscape:current-layer="svg2"
     fit-margin-top="0"
     fit-margin-left="0"
     fit-margin-right="0"
     fit-margin-bottom="0"
     inkscape:showpageshadow="false" />
  <path
     inkscape:connector-curvature="0"
     id="path3340"
     d="m 12.561153,39.430896 c -0.355834,-0.107145 -0.715496,-0.371843 -0.892887,-0.657128 -0.259969,-0.418086 -0.244318,-1.1475 0.03364,-1.567514 0.234205,-0.353911 0.647703,-0.593423 1.141267,-0.661073 0.245406,-0.0336 0.333392,-0.0773 0.31743,-0.157516 -0.01215,-0.06105 -0.333867,-0.299752 -0.714932,-0.530482 -3.8409045,-2.325569 -5.9283689,-5.858167 -5.7385845,-9.711351 0.085432,-1.73451 0.4902502,-3.145028 1.745712,-6.082626 0.9355679,-2.189087 1.2152678,-3.144811 1.2152678,-4.152518 0,-0.464753 -0.04536,-0.795758 -0.1543306,-1.126222 C 9.295329,14.122118 9.2296792,14.055766 8.7217222,13.983968 8.4808605,13.949918 8.1623573,13.871326 8.0139368,13.809308 7.6228403,13.645898 7.1488335,13.188571 6.920004,12.75387 6.748659,12.42837 6.7214985,12.288 6.724137,11.741588 6.726767,11.204475 6.757579,11.048573 6.9253336,10.724828 7.3565535,9.8926208 8.1435509,9.4569608 9.104301,9.5186178 c 1.112336,0.0714 1.843034,0.7427922 2.070096,1.9021122 0.07554,0.385703 0.404832,1.000726 0.62072,1.159336 0.04105,0.03015 0.683642,0.05535 1.427988,0.05595 1.340832,0.0015 1.353771,-4.5e-4 1.398357,-0.166785 0.02474,-0.09236 0.04547,-0.797647 0.04602,-1.567297 l 0.0011,-1.3993802 0.670185,0 0.670186,0 0.02018,1.5486452 0.02018,1.548645 0.858284,0 0.858282,0 0.02018,-1.548645 0.02018,-1.5486452 0.670186,0 0.670188,0 0,1.4410872 c 0,1.043025 0.02604,1.476698 0.09427,1.570005 0.0812,0.111045 0.20793,0.125955 0.914261,0.107558 l 0.819989,-0.02137 0.02017,-1.548645 0.02018,-1.5486452 0.668674,0 0.66867,0 0.02018,1.5486452 0.02017,1.548645 0.819991,0.02137 c 0.706328,0.01838 0.833058,0.0038 0.914258,-0.107558 0.06823,-0.09331 0.09427,-0.52698 0.09427,-1.570005 l 0,-1.4410872 0.670184,0 0.670188,0 0.02017,1.5486452 0.02018,1.548645 1.358473,0.02032 1.358471,0.02032 0.303907,-0.411383 c 0.196116,-0.26547 0.328785,-0.542565 0.37405,-0.781245 0.109415,-0.576937 0.277355,-0.908266 0.655485,-1.293172 0.619638,-0.6307422 1.565808,-0.8245582 2.435988,-0.4989822 0.506734,0.189592 1.091062,0.7947822 1.26758,1.3128372 0.163376,0.479482 0.151882,1.12965 -0.0285,1.61175 -0.278059,0.743182 -1.174219,1.400257 -1.909757,1.400257 -0.385766,0 -0.512464,0.09644 -0.706931,0.538117 -0.133764,0.303804 -0.180364,0.566828 -0.202178,1.141133 -0.04453,1.172332 0.08902,1.608742 1.701521,5.560192 0.91614,2.245012 1.26589,3.72864 1.265475,5.368095 -2.87e-4,1.126042 -0.142949,2.012158 -0.493529,3.065473 -0.525355,1.578436 -1.369459,2.907068 -2.678667,4.216275 -0.862474,0.862479 -1.62108,1.444786 -2.660019,2.041853 -0.342836,0.197025 -0.63268,0.406598 -0.6441,0.465712 -0.01488,0.07702 0.107834,0.131918 0.43307,0.193732 0.798625,0.15177 1.266945,0.684565 1.266945,1.441375 0,0.680586 -0.42144,1.229796 -1.082183,1.410284 -0.357274,0.09759 -14.733337,0.105292 -15.056237,0.0081 z m 8.325534,-4.571617 c 0.118312,-0.08706 0.125496,-0.731258 0.107556,-9.646365 l -0.01922,-9.553079 -0.86764,-0.02093 c -0.848264,-0.02048 -0.868657,-0.01717 -0.91324,0.149265 -0.02508,0.09361 -0.04606,4.391131 -0.04662,9.550034 -8e-4,8.42847 0.01088,9.39171 0.116259,9.497092 0.149724,0.149723 1.426393,0.1686 1.622905,0.024 z m -3.176591,-0.192308 c 0.07438,-0.04726 0.08969,-2.003475 0.07463,-9.533272 l -0.01895,-9.473864 -0.858283,0 -0.858285,0 -0.01895,9.263819 c -0.01664,8.128207 -0.0053,9.27513 0.09216,9.35604 0.06112,0.0507 0.405493,0.169447 0.765283,0.263835 0.790524,0.20739 0.709345,0.19521 0.82238,0.123442 z m 5.765142,-0.175957 c 0.307861,-0.08142 0.601732,-0.20202 0.653042,-0.26799 0.137475,-0.17676 0.13652,-18.288959 -0.0011,-18.476991 -0.0812,-0.111053 -0.20793,-0.125955 -0.914258,-0.107558 l -0.81999,0.02137 -0.01924,9.441127 c -0.01724,8.466179 -0.0073,9.449939 0.09676,9.526522 0.124795,0.09188 0.158611,0.08729 1.00465,-0.13647 z M 14.59124,33.464811 c 0.08387,-0.156712 0.112737,-17.366398 0.02965,-17.676523 -0.04477,-0.167093 -0.06216,-0.169718 -0.987873,-0.149265 l -0.942308,0.02078 -0.05355,0.597075 c -0.122671,1.367655 -0.493402,2.631278 -1.401365,4.776532 -1.093473,2.583562 -1.4287377,3.625478 -1.5671105,4.870154 -0.311793,2.804626 1.2746945,5.63181 4.1198955,7.341833 0.332867,0.200056 0.632257,0.363742 0.665309,0.363742 0.03305,0 0.09486,-0.06495 0.137354,-0.14436 z m 11.726014,-0.175957 c 0.764406,-0.435615 1.336648,-0.890318 2.052305,-1.630763 1.352896,-1.399732 2.064348,-2.951685 2.16771,-4.728615 0.08226,-1.414192 -0.253088,-2.716717 -1.415597,-5.498302 -0.348752,-0.834478 -0.722958,-1.752328 -0.831567,-2.039668 -0.310096,-0.820395 -0.636367,-2.173231 -0.70897,-2.939619 -0.0365,-0.38535 -0.09645,-0.730709 -0.133216,-0.767474 -0.03676,-0.03674 -0.467071,-0.0573 -0.956238,-0.04567 l -0.889392,0.02114 -0.01921,8.88138 c -0.01056,4.884749 -0.0032,8.92335 0.01632,8.974665 0.05282,0.138697 0.105105,0.12216 0.717854,-0.227025 z"
     style="fill:#ffffff" />
</svg>
